<?xml version="1.0" encoding="utf-8"?>
<!-- Generator: Adobe Illustrator 23.0.0, SVG Export Plug-In . SVG Version: 6.00 Build 0)  -->
<svg version="1.1" id="Layer_1" xmlns="http://www.w3.org/2000/svg" xmlns:xlink="http://www.w3.org/1999/xlink" x="0px" y="0px"
	 viewBox="0 0 42.8 40.8" style="enable-background:new 0 0 42.8 40.8;" xml:space="preserve">
<style type="text/css">
	.st0{fill:none;stroke:#FFFFFF;stroke-miterlimit:10;}
	.st1{fill:#FFFFFF;}
</style>
<title>arrow1</title>
<g>
	<g id="Layer_1-2">
		<path class="st0" d="M1.3,39.7c4.2-16.6,17.3-34,41.4-39.2"/>
		<path class="st1" d="M8.8,36.1c-0.1-0.2-0.4-0.3-0.7-0.2c0,0,0,0,0,0l-6.7,3.6L1,31.9c0-0.3-0.2-0.5-0.5-0.5c0,0,0,0,0,0
			c-0.3,0-0.5,0.3-0.5,0.5l0.4,8.4c0,0.2,0.1,0.3,0.3,0.4c0.1,0.1,0.3,0.1,0.5,0l7.4-4c0.1,0,0.2-0.1,0.2-0.2
			C8.9,36.4,8.9,36.3,8.8,36.1z"/>
	</g>
</g>
</svg>
