<svg width="87px" height="31px" viewBox="0 0 87 31" version="1.1" xmlns="http://www.w3.org/2000/svg" xmlns:xlink="http://www.w3.org/1999/xlink">
    <!-- Generator: Sketch 50.2 (55047) - http://www.bohemiancoding.com/sketch -->
    <title>beat</title>
    <defs></defs>
    <g id="beat" stroke="none" stroke-width="1" fill="none" fill-rule="evenodd">
        <path d="M58.281931,18.0691264 L56.3355632,8.33827586 C56.3098621,8.20878161 56.204092,8.14452874 56.0983218,8.14452874 C55.9925517,8.14452874 55.8877701,8.20878161 55.862069,8.33827586 L53.9186667,18.0691264 C53.8583678,18.3686437 54.0867126,18.6474023 54.3921609,18.6474023 L57.8084368,18.6474023 C58.1138851,18.6474023 58.3422299,18.3676552 58.281931,18.0691264 Z M66.3530805,30.1793103 L61.626046,30.1793103 C61.198023,30.1793103 60.8204138,29.8975862 60.6988276,29.4873563 L59.4315632,25.2110805 C59.3495172,24.9342989 59.0944828,24.7445057 58.8058391,24.7445057 L53.2731724,24.7445057 C52.9795862,24.7445057 52.7215862,24.9412184 52.6444828,25.2249195 L51.485954,29.4665977 C51.3712874,29.8877011 50.9887356,30.1793103 50.5528046,30.1793103 L45.8435632,30.1793103 C45.207954,30.1793103 44.7453333,29.5763218 44.9104138,28.9614713 L51.9288046,2.88864368 C52.2569885,1.66882759 53.3631264,0.821678161 54.6264368,0.821678161 L57.6137011,0.821678161 C58.878,0.821678161 59.9851264,1.6708046 60.3123218,2.8925977 L67.2872184,28.9624598 C67.4513103,29.5773103 66.9886897,30.1793103 66.3530805,30.1793103 Z M40.5145287,23.7065747 L31.0525517,23.7065747 C30.7856552,23.7065747 30.5691724,23.490092 30.5691724,23.2231954 L30.5691724,19.2197471 C30.5691724,18.9528506 30.7856552,18.7363678 31.0525517,18.7363678 L40.0242299,18.7363678 C40.558023,18.7363678 40.9909885,18.3043908 40.9909885,17.7705977 L40.9909885,13.2303908 C40.9909885,12.6965977 40.558023,12.2636322 40.0242299,12.2636322 L31.0525517,12.2636322 C30.7856552,12.2636322 30.5691724,12.0471494 30.5691724,11.7802529 L30.5691724,7.7768046 C30.5691724,7.50990805 30.7856552,7.29342529 31.0525517,7.29342529 L40.3504368,7.29342529 C40.8852184,7.29342529 41.3171954,6.86144828 41.3171954,6.32765517 L41.3171954,1.78744828 C41.3171954,1.25365517 40.8852184,0.820689655 40.3504368,0.820689655 L27.3328046,0.820689655 L26.6833563,0.869126437 C25.2608966,0.974896552 24.0964368,2.22832184 24.0964368,3.65473563 L24.0964368,27.3857931 C24.0964368,28.9288506 25.3478851,30.1793103 26.889954,30.1793103 L40.5145287,30.1793103 C41.0483218,30.1793103 41.4812874,29.7463448 41.4812874,29.2125517 L41.4812874,24.6733333 C41.4812874,24.1395402 41.0483218,23.7065747 40.5145287,23.7065747 Z M14.4150115,21.0366207 C14.4150115,19.4006437 13.2406667,17.8071724 11.4791494,17.8071724 L7.29085057,17.8071724 C7.03878161,17.8071724 6.87073563,17.9752184 6.87073563,18.2262989 L6.87073563,23.8884598 C6.87073563,24.1395402 7.03878161,24.3075862 7.29085057,24.3075862 L11.4791494,24.3075862 C13.2831724,24.3075862 14.4150115,22.7141149 14.4150115,21.0366207 Z M6.87073563,11.8514253 C6.87073563,12.1034943 7.03878161,12.2705517 7.29085057,12.2705517 L11.3170345,12.2705517 C12.7849655,12.2705517 14.0848506,10.9281609 14.0848506,9.46121839 C14.0848506,7.99328736 12.7849655,6.69241379 11.3170345,6.69241379 L7.29085057,6.69241379 C7.03878161,6.69241379 6.87073563,6.86045977 6.87073563,7.11252874 L6.87073563,11.8514253 Z M20.3341839,21.0366207 C20.3341839,26.6147586 16.8951724,30.1793103 11.3170345,30.1793103 L3.79351724,30.1793103 C2.25045977,30.1793103 1,28.9288506 1,27.3857931 L1,3.6151954 C1,2.07213793 2.25045977,0.821678161 3.79351724,0.821678161 L11.3170345,0.821678161 C16.4335402,0.821678161 19.9990805,4.63731034 19.9990805,9.20914943 C19.9990805,11.2217471 19.3694023,13.1513103 17.859954,14.6617471 C17.6078851,14.9128276 17.6078851,15.2489195 17.859954,15.415977 C19.5789655,16.7583678 20.3341839,18.9815172 20.3341839,21.0366207 Z M86.0322529,0.820689655 C86.5670345,0.820689655 87,1.25365517 87,1.78744828 L87,6.32666667 C87,6.86045977 86.5670345,7.29342529 86.0322529,7.29342529 L80.7397931,7.29342529 C80.4728966,7.29342529 80.2564138,7.50990805 80.2564138,7.7768046 L80.2564138,29.2125517 C80.2564138,29.7463448 79.8234483,30.1793103 79.2896552,30.1793103 L74.7504368,30.1793103 C74.2166437,30.1793103 73.7836782,29.7463448 73.7836782,29.2125517 L73.7836782,7.7768046 C73.7836782,7.50990805 73.5671954,7.29342529 73.3002989,7.29342529 L68.0068506,7.29342529 C67.4730575,7.29342529 67.040092,6.86045977 67.040092,6.32666667 L67.040092,1.78744828 C67.040092,1.25365517 67.4730575,0.820689655 68.0068506,0.820689655 L86.0322529,0.820689655 Z" id="Fill-1" fill="#23D2AA"></path>
    </g>
</svg>