<svg xmlns="http://www.w3.org/2000/svg" viewBox="0 0 301.5 151.5">
    <title>mask</title>
    <g id="Layer_2" data-name="Layer 2">
        <g id="Layer_1-2" data-name="Layer 1">
            <path
                d="M31.94,26.7c3.82-3.66,48.77,15,116.39,13.67s109.36-16,111.11-14.14,8.14,52.16,6.4,60.32-43.64,60.54-110.11,63.94C78,154.47,30.27,111.68,28,100.8S25.53,32.82,31.94,26.7Z"
                fill="none" stroke="#fff" stroke-linecap="round" stroke-linejoin="round" stroke-width="2.5" />
            <path d="M192.74,68.53c32.89-1.6,51.65-11.9,51.65-11.9s-36.43,20.61-76.58,25" fill="none" stroke="#fff"
                stroke-linecap="round" stroke-linejoin="round" stroke-width="2.5" />
            <path d="M164.83,108.35c61.17-5,83.56-27.92,83.56-27.92s-10.19,18.12-46.71,30.05" fill="none" stroke="#fff"
                stroke-linecap="round" stroke-linejoin="round" stroke-width="2.5" />
            <path d="M80.94,65.91C56,62.42,43.32,51.37,43.32,51.37S65.06,72.15,105,78.63" fill="none" stroke="#fff"
                stroke-linecap="round" stroke-linejoin="round" stroke-width="2.5" />
            <path d="M105,103.42c-52.9-5.94-65.27-28.27-65.27-28.27s2.47,18.61,42.32,34.13" fill="none" stroke="#fff"
                stroke-linecap="round" stroke-linejoin="round" stroke-width="2.5" />
            <path d="M28.65,37C24,29.48,25.39-.14,17.12.77S-6.36,50.4,4.56,65,26.77,84.63,26.77,84.63" fill="none"
                stroke="#fff" stroke-linecap="round" stroke-linejoin="round" stroke-width="2.5" />
            <path d="M261.09,33.26C265.87,27.86,273.57-2.68,287,6s19.87,45,5.9,50.65c-19.65,8-26.8,23.8-26.8,23.8"
                fill="none" stroke="#fff" stroke-linecap="round" stroke-linejoin="round" stroke-width="2.5" />
        </g>
    </g>
</svg>